<?xml version="1.0" encoding="utf-8" ?><!-- created by svgstack.com | Attribution is required. --><svg xmlns="http://www.w3.org/2000/svg" xmlns:xlink="http://www.w3.org/1999/xlink" width="1024" height="1024"><path fill="#BFBDBE" d="M76.4822 807.287L77.1893 807.793C79.2258 809.277 80.8931 811.232 82.8654 812.805C89.2477 817.897 95.8809 817.927 103.626 818.369C113.551 818.936 123.085 818.265 132.996 818.007C140.269 817.818 147.578 817.973 154.855 817.973L276.746 817.97L643.151 817.994L843.471 819.016L888.805 818.917C901.499 818.997 914.178 819.798 926.808 818.063C934.577 816.996 940.414 814.411 946.484 809.442C946.369 817.416 943.851 825.611 938.642 831.728C932.052 839.469 922.969 842.585 913.076 843.351C900.352 844.335 887.002 843.481 874.212 843.479L795.814 843.48L547.698 843.506L254.28 843.517L159.678 843.532C145.364 843.539 129.664 844.467 115.561 843.653C104.98 843.042 93.2681 841.629 85.0435 834.244C77.0463 827.064 76.8279 817.187 76.4822 807.287Z"/><path fill="#DEDDDC" d="M181.498 638.668C192.504 639.906 204.428 638.985 215.525 638.992L277.359 639.039L433.311 639.15L704.123 639.417L783.182 639.467C802.447 639.559 821.836 640.227 841.065 638.86C851.881 640.653 864.163 643.027 870.993 652.584C876.135 659.779 879.796 668.13 883.732 676.031L900.936 710.498L930.816 768.825C936.457 779.937 942.563 791.253 947.381 802.743L946.484 809.442C940.414 814.411 934.577 816.996 926.808 818.063C914.178 819.798 901.499 818.997 888.805 818.917L843.471 819.016L643.151 817.994L276.746 817.97L154.855 817.973C147.578 817.973 140.269 817.818 132.996 818.007C123.085 818.265 113.551 818.936 103.626 818.369C95.8809 817.927 89.2477 817.897 82.8654 812.805C80.8931 811.232 79.2258 809.277 77.1893 807.793L76.4822 807.287C76.3942 804.343 76.7108 802.213 77.9063 799.504C81.8613 790.539 87.1622 781.8 91.7527 773.123Q104.551 748.932 116.998 724.558L141.028 677.224C145.625 668.187 149.719 658.267 155.757 650.101C161.379 642.498 172.727 639.895 181.498 638.668Z"/><path fill="#BFBDBE" d="M415.759 747.246C465.217 747.239 514.739 746.727 564.189 747.418Q576.222 747.601 588.255 747.483C595.016 747.353 601.937 746.873 608.687 747.347C612.31 747.602 614.689 748.152 617.074 751.041C622.407 757.501 626.87 772.032 630.381 780.141C632.34 784.665 634.875 789.181 636.482 793.818C637.491 796.731 638.572 799.974 638.31 803.079C633.788 806.897 613.03 805.291 606.25 805.195L450.72 805.482L413.286 805.526C402.936 805.537 392.17 806.36 382.024 804.099L382.146 803.309C383.088 797.336 400.79 757.003 404.253 751.325C405.241 749.706 406.521 748.681 408.041 747.582C410.603 747.281 413.182 747.293 415.759 747.246Z"/><path fill="#221F1F" d="M233.36 657.742L824.048 657.999C826.224 664.969 830.182 672.034 833.217 678.719L850.093 715.866C853.241 722.788 856.66 729.651 859.418 736.736L791.25 736.73L321.481 736.996L219.211 736.987C202.457 736.985 185.433 737.621 168.702 736.975C167.172 736.916 166.179 736.808 165.042 735.782C164.887 734.884 164.99 734.315 165.304 733.484C169.6 722.099 175.718 710.96 180.821 699.877C187.203 686.015 192.817 671.021 200.804 658.028Q217.084 658.147 233.36 657.742Z"/><path fill="#221F1F" d="M181.498 638.668C170.809 632.645 160.89 627.134 157.412 614.399C153.931 601.656 155.258 585.273 155.382 571.978L155.611 535.609L155.834 391.75L155.951 269.926C155.91 247.307 154.896 224.422 156.059 201.835C156.343 196.311 157.033 191.831 159.887 186.971C163.85 180.22 170.596 173.525 178.341 171.39C186.651 169.098 196.605 169.567 205.184 169.368C228.544 168.826 251.908 169.506 275.27 169.693L400.572 169.878L685.891 169.765L786.785 169.499C804.457 169.468 822.134 169.074 839.805 169.556C844.407 169.682 849.388 170.746 853.312 173.228C860.598 177.838 866.053 185.299 867.722 193.796C870.472 207.802 868.588 225.804 868.588 240.283L868.662 335.222L868.663 515.369L868.677 566.49C868.765 579.156 869.33 592.003 868.472 604.647C868.008 611.495 865.945 617.924 862.068 623.629C856.691 631.54 849.544 635.107 841.065 638.86C821.836 640.227 802.447 639.559 783.182 639.467L704.123 639.417L433.311 639.15L277.359 639.039L215.525 638.992C204.428 638.985 192.504 639.906 181.498 638.668Z"/><path fill="#DEDDDC" d="M174.232 222.962C174.275 212.492 172.984 200.542 181.192 192.489C185.786 187.981 191.434 186.568 197.641 186.127C207.393 185.434 217.321 185.982 227.095 185.986L283.685 185.998L460.195 186.002L711.279 185.719L785.084 185.712C797.428 185.687 809.821 185.148 822.158 185.57C830.036 185.84 838.431 186.462 844.234 192.488C851.634 200.174 850.745 211.852 850.324 221.658Q850.296 222.371 850.252 223.084L174.232 222.962Z"/><path fill="#221F1F" d="M511.307 195.444C512.108 195.479 512.843 195.583 513.625 195.768C515.779 196.279 517.742 197.401 518.809 199.402C519.782 201.229 519.763 203.338 519.074 205.259C517.999 208.255 515.938 209.398 513.16 210.623C512.103 210.429 511.017 210.246 509.99 209.927C508.148 209.355 506.496 208.004 505.615 206.287C504.729 204.561 504.693 202.557 505.398 200.761C506.517 197.909 508.655 196.683 511.307 195.444Z"/><path fill="#2D98BC" d="M174.232 222.962L850.252 223.084C849.691 254.766 850.265 286.547 850.318 318.237L850.467 493.436L850.497 556.015C850.541 568.772 850.993 581.589 850.393 594.334C850.034 601.981 848.928 609.895 842.797 615.268C838.53 619.006 833.846 620.731 828.257 621.105C816.174 621.914 803.709 621.31 791.59 621.294L724.849 621.273L512.673 621.285L302.297 621.039L234.438 621.007C223.24 621.009 211.697 621.704 200.537 620.917C192.632 620.36 185.773 618.3 180.461 612.003C176.269 607.033 174.278 601.03 173.739 594.636C173.007 585.965 173.428 577.128 173.539 568.431L173.822 533.425L173.993 417.81L174.042 286.156L174.003 246.627C173.979 238.806 173.572 230.749 174.232 222.962Z"/><path fill="#DEDDDC" d="M523.731 360.973C524.006 361.055 524.284 361.126 524.555 361.219C526.214 361.788 528.167 362.953 528.836 364.662C529.283 365.801 529.153 367.074 528.741 368.198C527.081 372.72 523.093 374.999 519.063 377.009C518.191 376.986 517.126 376.993 516.297 376.729C515.204 376.382 514.311 375.386 514.016 374.291C513.619 372.822 514.202 370.96 514.818 369.634C516.76 365.45 519.435 362.607 523.731 360.973Z"/><path fill="#DEDDDC" d="M499.247 377.635C505.031 377.534 509.865 381.392 515.577 381.43C522.958 381.479 530.98 375.603 538.144 378.344C542.493 380.009 544.337 384.533 546.017 388.494L545.657 388.733L545.063 389.138C544.08 389.794 543.06 390.425 542.157 391.192C538.99 393.883 537.232 398.145 537.202 402.249C537.152 409.275 541.331 414.351 546.029 419.012C544.513 426.129 541.835 432.646 537.226 438.308C530.286 442.651 523.853 436.296 516.721 436.29C513.073 436.287 509.604 438.077 506.163 439.114C502.982 440.072 499.876 440.349 496.908 438.613C491.458 435.426 488.913 428.15 487.257 422.386C484.105 411.418 481.185 396.785 487.269 386.269C490.163 381.268 493.839 379.044 499.247 377.635Z"/></svg> 