<?xml version="1.0" encoding="UTF-8"?>
<svg version="1.1" xmlns="http://www.w3.org/2000/svg" width="48" height="48">
<path d="M0 0 C5.96789868 2.67729842 10.09899873 7.79254208 13.64453125 13.15234375 C15.85791258 19.09625982 15.59052781 28.05476895 13.6015625 34.00390625 C9.9765612 40.13302028 4.29303885 45.24187921 -2.5234375 47.38671875 C-5.8984375 47.6875 -5.8984375 47.6875 -9.5234375 47.69921875 C-10.7196875 47.71597656 -11.9159375 47.73273437 -13.1484375 47.75 C-16.79423032 47.35757091 -18.56579408 46.48321123 -21.5234375 44.38671875 C-22.5340625 43.76796875 -23.5446875 43.14921875 -24.5859375 42.51171875 C-28.67847341 39.55116086 -31.66291231 36.09741019 -33.5234375 31.38671875 C-34.372082 23.21293223 -34.77370745 15.1516795 -30.0234375 8.09375 C-27.71705527 5.46903898 -25.66086952 3.95543476 -22.5234375 2.38671875 C-21.5334375 2.38671875 -20.5434375 2.38671875 -19.5234375 2.38671875 C-19.5234375 1.72671875 -19.5234375 1.06671875 -19.5234375 0.38671875 C-14.37641034 -2.18679483 -5.52233131 -1.34211457 0 0 Z M-4.5234375 8.38671875 C-4.5234375 9.04671875 -4.5234375 9.70671875 -4.5234375 10.38671875 C-5.6990625 10.20109375 -5.6990625 10.20109375 -6.8984375 10.01171875 C-12.80414612 10.62265412 -17.93131052 13.74934267 -22.08984375 17.98046875 C-23.61211378 20.05966684 -24.50476389 21.78916324 -24.5859375 24.38671875 C-21.20992624 30.74156348 -17.66349675 33.31151539 -10.9609375 35.6953125 C-7.97482864 36.54233376 -5.59791906 36.91163024 -2.5234375 36.38671875 C0.79381038 34.25420226 1.55022617 31.09206405 2.4765625 27.38671875 C2.99349036 21.80389784 2.03522761 17.32205187 -0.5234375 12.38671875 C-2.54261572 9.94461353 -2.54261572 9.94461353 -4.5234375 8.38671875 Z M-26.5234375 30.38671875 C-25.5234375 33.38671875 -25.5234375 33.38671875 -25.5234375 33.38671875 Z " fill="#EE332E" transform="translate(33.5234375,0.61328125)"/>
<path d="M0 0 C0.680625 0.7425 1.36125 1.485 2.0625 2.25 C7.25102219 7.35156372 12.22517893 9.64025116 19.44140625 10.1015625 C27.7003385 9.77372702 33.43992643 5.85270902 39 0 C39.63497254 5.07978034 38.32389411 7.94986479 35.55859375 12.0390625 C31.84166072 16.71550455 27.74427133 20.19253532 22 22 C18.625 22.30078125 18.625 22.30078125 15 22.3125 C13.80375 22.32925781 12.6075 22.34601562 11.375 22.36328125 C6.85265497 21.87650106 4.2258494 20.40097074 1.25 17 C-0.98015305 13.43175512 -1.13584665 10.48588065 -1.125 6.375 C-1.12757813 5.39273437 -1.13015625 4.41046875 -1.1328125 3.3984375 C-1 1 -1 1 0 0 Z " fill="#F3B01B" transform="translate(9,26)"/>
<path d="M0 0 C2.56394956 1.01532402 4.41121908 2.06581272 6.75 3.625 C6.75 4.615 6.75 5.605 6.75 6.625 C5.0175 6.9653125 5.0175 6.9653125 3.25 7.3125 C-2.18487943 8.7097651 -7.17786294 10.83627376 -10.60546875 15.44921875 C-14.88962957 23.32155758 -14.61548056 30.1796479 -12.25 38.625 C-17.19880175 36.3680151 -20.26299352 32.68205942 -22.25 27.625 C-23.09740052 19.46319496 -23.51952432 11.36189949 -18.734375 4.33203125 C-13.22389771 -2.00501764 -7.67598489 -2.74142318 0 0 Z " fill="#8B2577" transform="translate(22.25,4.375)"/>
</svg>
