<?xml version="1.0" encoding="utf-8" ?><!-- created by svgstack.com | Attribution is required. --><svg xmlns="http://www.w3.org/2000/svg" xmlns:xlink="http://www.w3.org/1999/xlink" width="1024" height="1024"><path fill="#F13C39" d="M888.211 794.082C893.76 783.987 899.625 775.769 911.189 772.348Q911.947 772.12 912.715 771.931Q913.484 771.741 914.26 771.59Q915.037 771.439 915.82 771.327Q916.604 771.214 917.392 771.141Q918.18 771.068 918.97 771.034Q919.761 771 920.552 771.006Q921.344 771.011 922.134 771.056Q922.924 771.101 923.711 771.185Q924.498 771.27 925.279 771.393Q926.061 771.516 926.836 771.678Q927.61 771.84 928.376 772.04Q929.141 772.241 929.896 772.479Q930.651 772.717 931.393 772.993Q932.134 773.268 932.862 773.58Q933.589 773.892 934.3 774.24Q935.01 774.588 935.703 774.971C943.895 779.467 950.026 786.635 952.588 795.674C955 804.18 954.234 813.757 949.902 821.52C945.68 829.084 937.884 835.933 929.52 838.33C920.677 840.864 911.958 839.198 904.112 834.655C896.36 830.167 890.939 823.118 887.979 814.703C886.767 807.998 886.132 800.679 888.211 794.082Z"/><path fill="#F13C39" d="M135.983 564.865C131.742 572.531 127.051 579.579 119.186 583.907C111.479 588.148 101.525 589.11 93.1045 586.623C84.3579 584.04 77.0809 578.305 72.7993 570.225Q72.3957 569.473 72.0304 568.702Q71.6652 567.931 71.3392 567.142Q71.0132 566.353 70.7273 565.549Q70.4414 564.745 70.1964 563.928Q69.9513 563.111 69.7477 562.282Q69.544 561.453 69.3824 560.615Q69.2207 559.777 69.1014 558.932Q68.9821 558.087 68.9055 557.237Q68.8288 556.388 68.7951 555.535Q68.7613 554.682 68.7705 553.829Q68.7797 552.976 68.8318 552.124Q68.8839 551.272 68.9788 550.424Q69.0738 549.576 69.2112 548.734Q69.3487 547.892 69.5284 547.057Q69.708 546.223 69.9295 545.399Q70.1509 544.575 70.4135 543.763Q70.6709 542.956 70.9678 542.162Q71.2647 541.369 71.6003 540.591Q71.9359 539.812 72.3095 539.052Q72.683 538.291 73.0936 537.55Q73.5042 536.809 73.9508 536.089Q74.3973 535.369 74.8789 534.672Q75.3604 533.975 75.8757 533.302Q76.391 532.629 76.9388 531.983Q77.4866 531.337 78.0656 530.718Q78.6446 530.099 79.2533 529.51Q79.8621 528.921 80.4991 528.362Q81.1362 527.803 81.8 527.277Q82.4638 526.75 83.1528 526.257Q83.8418 525.764 84.5542 525.305Q85.2666 524.846 86.0007 524.423Q86.7349 524 87.489 523.614C95.5817 519.456 105.618 518.599 114.271 521.461C126.041 525.353 131.417 534.211 136.719 544.676C137.849 551.856 137.6 557.785 135.983 564.865Z"/><path fill="#F13C39" d="M886.435 608.927C890.856 598.837 896.154 590.507 906.811 586.277Q907.563 585.978 908.329 585.716Q909.095 585.454 909.873 585.229Q910.651 585.005 911.439 584.82Q912.227 584.635 913.023 584.488Q913.819 584.342 914.622 584.235Q915.424 584.128 916.231 584.06Q917.037 583.993 917.847 583.965Q918.656 583.937 919.465 583.949Q920.274 583.962 921.082 584.014Q921.89 584.066 922.694 584.157Q923.499 584.249 924.298 584.38Q925.096 584.512 925.888 584.682Q926.679 584.852 927.461 585.061Q928.243 585.271 929.014 585.518Q929.785 585.765 930.543 586.05Q931.3 586.335 932.043 586.657Q932.867 587.022 933.672 587.426Q934.478 587.831 935.262 588.274Q936.047 588.718 936.808 589.199Q937.57 589.681 938.307 590.199Q939.045 590.718 939.756 591.272Q940.466 591.826 941.149 592.414Q941.832 593.002 942.485 593.623Q943.138 594.244 943.76 594.896Q944.382 595.548 944.971 596.23Q945.56 596.912 946.115 597.623Q946.67 598.333 947.189 599.069Q947.709 599.806 948.192 600.567Q948.674 601.328 949.119 602.112Q949.563 602.895 949.969 603.7Q950.375 604.505 950.74 605.329Q951.106 606.152 951.431 606.993Q951.728 607.757 951.986 608.534Q952.244 609.312 952.463 610.101Q952.682 610.891 952.862 611.69Q953.041 612.49 953.181 613.297Q953.32 614.104 953.42 614.918Q953.519 615.731 953.578 616.548Q953.636 617.365 953.654 618.184Q953.672 619.004 953.649 619.823Q953.626 620.642 953.562 621.458Q953.498 622.275 953.394 623.088Q953.29 623.901 953.145 624.707Q953.001 625.514 952.816 626.312Q952.632 627.11 952.407 627.898Q952.183 628.686 951.92 629.462Q951.657 630.238 951.356 631Q951.055 631.762 950.716 632.508Q950.364 633.279 949.975 634.032Q949.587 634.785 949.161 635.518Q948.736 636.251 948.276 636.962Q947.816 637.674 947.321 638.362Q946.827 639.05 946.3 639.713Q945.772 640.376 945.213 641.013Q944.654 641.65 944.065 642.259Q943.476 642.868 942.857 643.447Q942.239 644.026 941.593 644.575Q940.947 645.124 940.276 645.64Q939.604 646.157 938.908 646.64Q938.212 647.123 937.493 647.572Q936.774 648.02 936.034 648.433Q935.294 648.847 934.535 649.223Q933.776 649.6 933 649.939Q932.223 650.278 931.431 650.579C923.11 653.726 912.763 653.343 904.693 649.591C897.864 646.416 892.425 640.887 888.813 634.321C887.858 632.587 887.327 630.499 886.343 628.858C885.353 622.246 884.915 615.49 886.435 608.927Z"/><path fill="#F13C39" d="M138.786 214.033C128.855 209.748 119.744 203.537 115.739 193.006C112.32 184.015 113.257 173.356 117.358 164.747Q117.705 164.021 118.087 163.314Q118.47 162.606 118.886 161.918Q119.303 161.23 119.754 160.564Q120.204 159.897 120.687 159.254Q121.17 158.61 121.684 157.992Q122.198 157.373 122.742 156.781Q123.286 156.188 123.858 155.623Q124.431 155.058 125.031 154.522Q125.631 153.987 126.257 153.481Q126.882 152.975 127.532 152.502Q128.182 152.028 128.854 151.586Q129.527 151.145 130.221 150.738Q130.914 150.33 131.627 149.957Q132.34 149.585 133.07 149.248Q133.801 148.911 134.547 148.611Q135.293 148.31 136.053 148.047Q136.915 147.75 137.791 147.497Q138.667 147.243 139.555 147.034Q140.442 146.824 141.339 146.659Q142.236 146.494 143.14 146.374Q144.044 146.254 144.952 146.18Q145.861 146.105 146.773 146.076Q147.684 146.047 148.596 146.063Q149.508 146.079 150.417 146.141Q151.327 146.203 152.233 146.31Q153.138 146.417 154.037 146.569Q154.936 146.721 155.827 146.918Q156.717 147.115 157.597 147.356Q158.476 147.597 159.342 147.882Q160.209 148.167 161.06 148.494Q161.911 148.822 162.744 149.192Q163.578 149.561 164.392 149.972C172.642 154.072 178.992 160.841 181.861 169.655C184.986 179.256 183.749 189.154 179.213 198.072C175.552 205.269 167.285 211.544 159.672 213.978C152.385 215.605 146.064 215.608 138.786 214.033Z"/><path fill="#17255F" d="M853.192 246.61C827.055 242.622 803.898 230.676 788.042 209.181C772.381 187.949 766.609 161.326 770.69 135.392Q770.876 134.277 771.09 133.168Q771.304 132.058 771.545 130.954Q771.785 129.85 772.053 128.752Q772.321 127.654 772.616 126.563Q772.91 125.472 773.231 124.388Q773.552 123.305 773.9 122.229Q774.247 121.154 774.621 120.088Q774.995 119.021 775.395 117.964Q775.794 116.907 776.22 115.86Q776.645 114.813 777.096 113.777Q777.547 112.741 778.024 111.716Q778.5 110.691 779.001 109.678Q779.502 108.665 780.028 107.665Q780.554 106.664 781.104 105.677Q781.654 104.69 782.228 103.717Q782.802 102.743 783.4 101.784Q783.998 100.825 784.619 99.881Q785.24 98.9368 785.884 98.0082Q786.528 97.0795 787.194 96.1668Q787.861 95.2542 788.549 94.3581Q789.238 93.4621 789.948 92.5831Q790.659 91.7042 791.39 90.8429Q792.122 89.9816 792.874 89.1385Q793.627 88.2953 794.4 87.4709Q795.173 86.6464 795.966 85.8411Q796.758 85.0358 797.571 84.2501Q798.383 83.4645 799.214 82.6989Q800.046 81.9333 800.895 81.1884Q801.745 80.4434 802.613 79.7194Q803.481 78.9955 804.366 78.293Q805.251 77.5904 806.153 76.9098Q807.055 76.2292 807.974 75.5708Q808.924 74.873 809.891 74.1988Q810.858 73.5246 811.841 72.8745Q812.825 72.2244 813.824 71.5988Q814.823 70.9732 815.837 70.3724Q816.851 69.7717 817.88 69.1962Q818.909 68.6206 819.951 68.0707Q820.994 67.5207 822.05 66.9967Q823.106 66.4726 824.174 65.9748Q825.243 65.477 826.323 65.0057Q827.404 64.5344 828.496 64.09Q829.587 63.6455 830.69 63.2282Q831.792 62.8108 832.905 62.4208Q834.017 62.0308 835.139 61.6683Q836.26 61.3059 837.391 60.9713Q838.521 60.6367 839.659 60.33Q840.797 60.0234 841.943 59.745Q843.088 59.4666 844.24 59.2165Q845.392 58.9665 846.55 58.7449Q847.708 58.5234 848.871 58.3305Q850.034 58.1377 851.201 57.9736Q852.368 57.8094 853.539 57.6742Q854.71 57.539 855.884 57.4327Q857.058 57.3264 858.234 57.2492Q859.411 57.1719 860.589 57.1237Q861.766 57.0755 862.945 57.0564Q864.124 57.0373 865.302 57.0473Q866.481 57.0573 867.659 57.0965Q868.837 57.1356 870.014 57.2038Q871.191 57.2719 872.366 57.3692Q873.541 57.4664 874.713 57.5926Q875.885 57.7188 877.053 57.8739Q878.222 58.029 879.386 58.2129Q880.508 58.4029 881.624 58.6201Q882.741 58.8372 883.852 59.0815Q884.963 59.3258 886.068 59.5969Q887.173 59.8681 888.271 60.1661Q889.369 60.464 890.459 60.7885Q891.549 61.1131 892.632 61.464Q893.714 61.8149 894.787 62.192Q895.86 62.5691 896.924 62.9722Q897.988 63.3753 899.042 63.8041Q900.096 64.2329 901.139 64.6872Q902.182 65.1415 903.213 65.621Q904.245 66.1005 905.265 66.6049Q906.284 67.1093 907.291 67.6384Q908.299 68.1674 909.293 68.7208Q910.287 69.2741 911.267 69.8515Q912.247 70.4288 913.213 71.0298Q914.179 71.6308 915.13 72.2551Q916.081 72.8794 917.017 73.5266Q917.952 74.1738 918.872 74.8436Q919.791 75.5133 920.695 76.2052Q921.598 76.8971 922.483 77.6107Q923.369 78.3244 924.238 79.0593Q925.106 79.7942 925.956 80.5501Q926.807 81.3059 927.638 82.0822Q928.47 82.8584 929.282 83.6547Q930.095 84.4509 930.888 85.2667Q931.681 86.0824 932.454 86.9172Q933.227 87.752 933.979 88.6053Q934.732 89.4586 935.463 90.3299Q936.194 91.2012 936.904 92.0901Q937.614 92.9789 938.303 93.8848Q938.991 94.7906 939.657 95.7129Q940.328 96.6638 940.977 97.6309Q941.625 98.5979 942.249 99.5805Q942.874 100.563 943.474 101.56Q944.074 102.558 944.65 103.57Q945.226 104.581 945.777 105.607Q946.328 106.632 946.854 107.671Q947.38 108.71 947.88 109.761Q948.381 110.812 948.856 111.875Q949.33 112.938 949.779 114.012Q950.228 115.086 950.65 116.171Q951.072 117.256 951.468 118.351Q951.864 119.446 952.233 120.55Q952.602 121.654 952.944 122.767Q953.286 123.88 953.601 125Q953.916 126.121 954.203 127.249Q954.491 128.378 954.751 129.512Q955.011 130.647 955.243 131.788Q955.475 132.929 955.679 134.075Q955.884 135.221 956.06 136.372Q956.236 137.522 956.385 138.677Q956.533 139.832 956.653 140.99Q956.773 142.148 956.865 143.308Q956.957 144.469 957.02 145.631Q957.084 146.794 957.119 147.957Q957.154 149.121 957.161 150.285Q957.168 151.449 957.146 152.613Q957.125 153.777 957.075 154.94Q957.025 156.104 956.947 157.265Q956.869 158.427 956.763 159.586Q956.656 160.745 956.522 161.902Q956.387 163.058 956.224 164.211Q956.062 165.364 955.871 166.512Q955.666 167.685 955.432 168.852Q955.198 170.02 954.936 171.181Q954.674 172.342 954.384 173.497Q954.094 174.652 953.775 175.799Q953.457 176.946 953.112 178.086Q952.766 179.225 952.392 180.356Q952.019 181.486 951.618 182.607Q951.218 183.728 950.79 184.84Q950.362 185.951 949.908 187.051Q949.453 188.151 948.972 189.241Q948.491 190.33 947.983 191.407Q947.476 192.484 946.943 193.548Q946.409 194.613 945.85 195.664Q945.291 196.715 944.707 197.752Q944.122 198.79 943.513 199.812Q942.904 200.835 942.27 201.843Q941.635 202.851 940.977 203.843Q940.319 204.835 939.637 205.811Q938.955 206.786 938.249 207.745Q937.543 208.704 936.815 209.646Q936.086 210.588 935.335 211.511Q934.583 212.435 933.81 213.34Q933.036 214.245 932.241 215.131Q931.446 216.017 930.629 216.884Q929.813 217.75 928.976 218.597Q928.138 219.443 927.281 220.269Q926.423 221.095 925.546 221.9Q924.669 222.705 923.772 223.488Q922.875 224.271 921.96 225.033Q921.045 225.794 920.111 226.533Q919.178 227.272 918.227 227.988Q917.275 228.704 916.307 229.397Q913.975 231.05 911.55 232.564Q909.125 234.077 906.615 235.446Q904.105 236.814 901.519 238.033Q898.933 239.251 896.28 240.316Q893.628 241.381 890.917 242.288Q888.206 243.196 885.446 243.942Q882.687 244.689 879.888 245.272Q877.09 245.855 874.262 246.273L874.385 430.876L874.456 489.101C874.478 499.017 875.079 509.281 874.386 519.165C874.194 521.901 873.846 524.278 871.822 526.285C870.639 527.457 869.143 528.315 867.733 529.182C855.46 529.596 843.118 529.339 830.837 529.34C801.962 529.341 773.041 528.977 744.172 529.382Q743.958 569.206 744.214 609.029C791.606 608.275 839.034 609.215 886.435 608.927C884.915 615.49 885.353 622.246 886.343 628.858Q815.271 628.26 744.196 628.517L744.052 678.591L801.851 678.528C812.631 678.472 825.172 676.949 835.751 679.122C837.735 679.529 839.257 680.6 840.65 682.031C841.702 683.111 842.586 684.296 843.447 685.53L843.514 794.026L888.211 794.082C886.132 800.679 886.767 807.998 887.979 814.703C872.768 815.375 857.342 814.857 842.093 815.024C837.073 815.079 829.484 815.7 825.74 811.809C823.541 809.524 823.124 806.055 822.841 803.028C821.901 792.963 823.087 782.342 823.09 772.2L823.008 699.46C813.759 699.041 804.412 699.243 795.151 699.193L744.45 699.088C744.041 714.485 744.404 729.988 744.384 745.395L744.311 831.37L744.456 862.163C744.502 870.475 745.143 879.204 743.418 887.372C741.48 896.553 736.511 904.286 729.988 910.911C687.584 953.983 577.36 965.932 519.307 966.415C501.536 966.563 483.661 966.6 465.913 965.597C413.039 962.609 321.672 950.761 282.828 912.258C275.892 905.383 269.632 896.956 267.442 887.267C265.669 879.427 266.456 870.626 266.481 862.604L266.573 829.008L266.506 699.462C227.23 698.742 187.764 699.067 148.477 699.357L148.485 795.362Q151.552 795.754 154.568 796.433Q157.585 797.112 160.524 798.072Q163.463 799.032 166.299 800.264Q169.135 801.496 171.842 802.99C189.011 812.489 201.06 828.361 206.296 847.201Q206.544 848.069 206.771 848.943Q206.997 849.817 207.201 850.696Q207.405 851.575 207.587 852.459Q207.769 853.343 207.929 854.232Q208.089 855.12 208.226 856.013Q208.363 856.905 208.478 857.8Q208.592 858.695 208.685 859.593Q208.777 860.491 208.846 861.391Q208.916 862.291 208.962 863.193Q209.009 864.094 209.033 864.997Q209.057 865.899 209.058 866.802Q209.06 867.704 209.038 868.607Q209.017 869.509 208.973 870.411Q208.928 871.312 208.862 872.212Q208.795 873.113 208.705 874.011Q208.616 874.909 208.503 875.805Q208.391 876.7 208.257 877.593Q208.122 878.486 207.965 879.374Q207.808 880.263 207.628 881.148Q207.449 882.033 207.247 882.913Q207.045 883.792 206.821 884.667Q206.597 885.541 206.352 886.41Q206.106 887.278 205.838 888.141Q205.571 889.003 205.281 889.858Q204.992 890.713 204.682 891.56Q204.371 892.408 204.039 893.247Q203.707 894.087 203.354 894.917Q203.001 895.748 202.627 896.57Q202.253 897.392 201.859 898.204Q201.465 899.016 201.05 899.817Q200.635 900.619 200.2 901.41Q199.766 902.201 199.311 902.981C190.125 918.972 175.378 930.93 157.467 935.645C139.294 940.428 120.969 938.729 104.641 929.175Q103.066 928.252 101.54 927.252Q100.013 926.252 98.5374 925.177Q97.062 924.103 95.6418 922.957Q94.2215 921.81 92.8598 920.595Q91.4982 919.38 90.1985 918.098Q88.8987 916.817 87.6642 915.472Q86.4296 914.128 85.2632 912.724Q84.0969 911.32 83.0016 909.86Q81.9062 908.4 80.8847 906.888Q79.8631 905.375 78.9178 903.814Q77.9726 902.253 77.1059 900.647Q76.2392 899.04 75.4532 897.393Q74.6673 895.746 73.964 894.061Q73.2607 892.377 72.6417 890.66Q72.0228 888.943 71.4898 887.198Q70.9569 885.452 70.5111 883.682C65.6744 864.661 68.8544 845.112 79.013 828.388C90.3035 809.8 107.424 800.47 128.026 795.481C127.952 761.516 127.537 727.501 128.02 693.542C128.068 690.156 127.984 684.044 130.607 681.646C132.522 679.894 134.647 679.281 137.18 679.053C143.654 678.471 150.361 679.023 156.858 679.109Q169.983 679.168 183.108 679.064L236.713 678.837C246.64 678.806 256.642 678.533 266.558 678.912L266.516 564.866C250.55 564.546 234.483 564.967 218.507 564.979L135.983 564.865C137.6 557.785 137.849 551.856 136.719 544.676C179.901 543.944 223.213 544.567 266.409 544.547C266.796 518.35 266.399 492.088 266.261 465.886Q216.675 465.722 167.092 466.226C161.275 466.314 146.234 467.165 142.17 463.008C139.761 460.545 139.304 457.818 139.039 454.499C138.348 445.834 139.064 436.744 139.14 428.042L139.22 381.164L138.786 214.033C146.064 215.608 152.385 215.605 159.672 213.978C159.967 234.361 159.672 254.784 159.628 275.171L159.476 381.559C159.458 402.636 159.167 423.764 159.729 444.832L266.293 444.621L266.223 291.287L266.151 255.494C266.102 245.573 265.263 234.917 267.301 225.156C269.291 215.627 274.952 207.541 281.772 200.774C318.664 164.172 405.966 150.129 456.322 146.197Q485.605 144.118 514.958 144.588C575.816 145.122 685.222 159.144 729.591 204.565C741.518 216.775 744.23 228.958 743.951 245.583C742.474 333.348 744.88 421.207 743.811 508.979L816.806 508.749C828.885 508.726 841.336 508.083 853.383 508.812L853.192 246.61Z"/><path fill="#FEFEFE" d="M618.418 849.51C621.817 849.382 625.161 849.489 628.391 850.656C633.251 852.412 637.404 856.003 639.466 860.792Q639.659 861.246 639.828 861.709Q639.998 862.172 640.145 862.644Q640.291 863.115 640.414 863.592Q640.536 864.07 640.635 864.554Q640.734 865.037 640.808 865.525Q640.882 866.013 640.932 866.503Q640.981 866.994 641.006 867.487Q641.031 867.98 641.032 868.473Q641.032 868.966 641.008 869.459Q640.983 869.952 640.934 870.443Q640.885 870.933 640.812 871.421Q640.738 871.909 640.641 872.393Q640.543 872.876 640.421 873.354Q640.299 873.832 640.153 874.303Q640.007 874.775 639.838 875.238Q639.669 875.702 639.477 876.156C636.825 882.338 631.942 885.09 626.003 887.415C622.747 887.649 619.551 887.58 616.432 886.539C611.467 884.881 607.404 881.603 605.142 876.827Q604.932 876.384 604.745 875.931Q604.558 875.478 604.394 875.016Q604.23 874.554 604.091 874.084Q603.951 873.615 603.835 873.138Q603.72 872.662 603.629 872.18Q603.538 871.699 603.472 871.213Q603.405 870.727 603.364 870.239Q603.323 869.751 603.307 869.261Q603.29 868.771 603.299 868.281Q603.308 867.791 603.342 867.302Q603.376 866.813 603.435 866.327Q603.494 865.84 603.578 865.357Q603.661 864.874 603.77 864.396Q603.878 863.918 604.011 863.446Q604.143 862.975 604.3 862.51Q604.457 862.046 604.637 861.59C607.292 855.037 612.321 852.204 618.418 849.51Z"/><path fill="#FEFEFE" d="M565.062 859.525C569.429 859.397 573.439 859.698 577.373 861.798Q577.805 862.03 578.224 862.283Q578.643 862.537 579.048 862.812Q579.454 863.087 579.844 863.383Q580.235 863.679 580.609 863.994Q580.984 864.31 581.342 864.645Q581.7 864.979 582.04 865.332Q582.38 865.685 582.701 866.055Q583.022 866.424 583.324 866.81Q583.626 867.196 583.907 867.597Q584.188 867.999 584.448 868.414Q584.708 868.829 584.947 869.257Q585.185 869.685 585.401 870.125Q585.616 870.565 585.809 871.015Q586.002 871.466 586.171 871.925Q586.34 872.385 586.485 872.853Q586.63 873.321 586.75 873.796Q586.971 874.673 587.105 875.567Q587.239 876.461 587.285 877.364Q587.33 878.267 587.287 879.17Q587.243 880.073 587.111 880.967Q586.979 881.862 586.759 882.739Q586.539 883.616 586.234 884.467Q585.93 885.318 585.543 886.135Q585.156 886.952 584.69 887.727C581.683 892.738 576.744 895.596 571.178 896.927C567.342 897.478 563.607 897.063 560.042 895.479Q559.6 895.281 559.169 895.06Q558.738 894.839 558.32 894.595Q557.901 894.352 557.495 894.088Q557.089 893.823 556.698 893.538Q556.306 893.253 555.93 892.948Q555.554 892.643 555.194 892.319Q554.834 891.995 554.492 891.652Q554.149 891.31 553.825 890.95Q553.5 890.591 553.195 890.215Q552.89 889.839 552.604 889.447Q552.319 889.056 552.054 888.651Q551.79 888.245 551.546 887.826Q551.303 887.408 551.082 886.977Q550.86 886.546 550.662 886.104Q550.463 885.663 550.287 885.211Q550.112 884.76 549.96 884.3Q549.807 883.831 549.679 883.355Q549.551 882.878 549.446 882.396Q549.343 881.914 549.263 881.427Q549.184 880.94 549.13 880.45Q549.076 879.96 549.046 879.467Q549.017 878.975 549.013 878.481Q549.009 877.988 549.031 877.495Q549.052 877.003 549.098 876.511Q549.144 876.02 549.216 875.532Q549.287 875.044 549.383 874.56Q549.479 874.076 549.6 873.598Q549.721 873.12 549.866 872.648Q550.011 872.177 550.18 871.713Q550.348 871.25 550.541 870.795Q550.733 870.341 550.948 869.897Q551.163 869.453 551.401 869.021C554.451 863.496 559.276 861.21 565.062 859.525Z"/><path fill="#F13C39" d="M134.771 820.138C145.045 819.31 155.698 821.908 164.2 827.795C174.458 834.898 181.25 846.307 183.42 858.51C185.551 870.488 183.428 883.797 176.374 893.875C168.586 905.003 157.385 910.887 144.239 913.191C132.444 913.531 121.965 911.564 112.222 904.508C102.257 897.291 95.8165 885.571 93.9532 873.512Q93.7718 872.36 93.6476 871.201Q93.5234 870.042 93.4567 868.878Q93.3899 867.714 93.3808 866.548Q93.3717 865.382 93.4202 864.217Q93.4687 863.052 93.5747 861.891Q93.6808 860.73 93.8441 859.576Q94.0074 858.421 94.2275 857.276Q94.4477 856.131 94.7242 854.999Q95.0007 853.866 95.3328 852.748Q95.6649 851.631 96.0519 850.531Q96.4389 849.431 96.8797 848.352Q97.3206 847.272 97.8143 846.216Q98.3079 845.16 98.8532 844.129Q99.3985 843.099 99.9941 842.096Q100.59 841.094 101.234 840.122Q101.878 839.151 102.57 838.212C110.404 827.706 121.963 821.945 134.771 820.138Z"/><path fill="#FEFEFE" d="M722.005 435.978C722.064 439.742 721.932 443.472 721.752 447.232C718.694 452.478 715.368 457.225 710.941 461.416C693.014 478.388 661.502 488.43 637.815 494.658C549.778 517.806 392.29 516.663 312.922 469.867C303.577 464.358 296.747 458.208 291.338 448.82C291.099 444.682 291.216 440.474 291.182 436.326C298.324 441.521 305.297 446.744 312.996 451.116C350.987 472.688 397.311 481.637 440.254 486.429C515.987 494.881 626.417 490.699 694.445 454.815C704.424 449.55 713.223 442.989 722.005 435.978Z"/><path fill="#F13C39" d="M859.855 82.6935C874.437 80.7841 891.263 86.7065 903.066 95.0047Q904.452 95.9781 905.789 97.0182Q907.126 98.0583 908.411 99.1627Q909.695 100.267 910.924 101.433Q912.153 102.599 913.323 103.824Q914.493 105.048 915.602 106.329Q916.711 107.61 917.755 108.943Q918.8 110.276 919.778 111.659Q920.757 113.042 921.666 114.472Q922.575 115.901 923.413 117.373Q924.251 118.845 925.016 120.356Q925.781 121.867 926.471 123.414Q927.162 124.961 927.775 126.54Q928.389 128.119 928.924 129.726Q929.459 131.333 929.915 132.965Q930.371 134.596 930.747 136.248Q931.123 137.9 931.417 139.568Q931.697 141.238 931.894 142.92Q932.091 144.602 932.204 146.291Q932.318 147.981 932.348 149.674Q932.378 151.367 932.324 153.059Q932.27 154.752 932.132 156.44Q931.995 158.127 931.774 159.806Q931.553 161.485 931.249 163.151Q930.946 164.817 930.56 166.466Q930.174 168.115 929.708 169.742Q929.241 171.37 928.694 172.973Q928.147 174.575 927.522 176.149Q926.897 177.723 926.195 179.263Q925.492 180.804 924.715 182.308Q923.937 183.813 923.086 185.277Q922.235 186.74 921.312 188.16Q920.39 189.58 919.398 190.953C906.531 209.069 889.925 217.543 868.364 221.103C851.374 222.092 835.099 217.662 821.547 207.116Q820.177 206.069 818.862 204.956Q817.546 203.842 816.288 202.664Q815.03 201.486 813.832 200.246Q812.634 199.007 811.5 197.709Q810.365 196.411 809.297 195.059Q808.229 193.706 807.23 192.301Q806.231 190.897 805.303 189.444Q804.375 187.991 803.521 186.494Q802.667 184.997 801.889 183.459Q801.111 181.921 800.411 180.346Q799.71 178.771 799.09 177.163Q798.469 175.555 797.929 173.918Q797.39 172.281 796.933 170.619Q796.475 168.957 796.102 167.274Q795.729 165.591 795.44 163.892Q795.151 162.193 794.947 160.481Q794.752 158.765 794.64 157.042Q794.529 155.319 794.501 153.593Q794.474 151.867 794.53 150.141Q794.587 148.415 794.727 146.694Q794.868 144.973 795.092 143.261Q795.316 141.549 795.624 139.85Q795.931 138.151 796.321 136.469Q796.711 134.787 797.182 133.126Q797.653 131.465 798.204 129.829Q798.756 128.192 799.386 126.585Q800.017 124.977 800.725 123.403Q801.433 121.828 802.217 120.289Q803.001 118.751 803.859 117.253Q804.716 115.754 805.646 114.299Q806.576 112.844 807.576 111.436Q808.575 110.029 809.642 108.671C822.224 92.8721 840.081 84.891 859.855 82.6935Z"/><path fill="#FEFEFE" d="M291.505 568.437C297.915 574.168 304.355 579.344 311.759 583.788C369.463 618.426 470.604 626.874 537.109 623.215C586.891 620.475 650.148 611.771 694.524 587.483C704.521 582.011 713.235 575.43 721.881 568.028C723.09 583.264 723.146 599.864 721.932 615.1C717.649 621.684 713.375 626.86 706.957 631.492C660.353 665.128 552.145 673.924 496.149 673.076Q475.629 672.712 455.186 670.893Q434.744 669.073 414.482 665.807C382.846 660.531 336.502 650.526 310.002 631.702C302.318 626.243 296.733 620.179 291.289 612.559C291.15 597.857 291.522 583.143 291.505 568.437Z"/><path fill="#FEFEFE" d="M721.486 732.529C721.557 732.624 721.655 732.704 721.699 732.814C723.165 736.439 722.636 768.032 721.774 773.262C720.132 783.218 713.111 790.269 705.242 795.974C693.777 804.286 680.381 809.898 667.2 814.847C594.511 842.134 491.865 844.366 415.367 832.409C378.681 826.675 318.636 815.778 295.371 783.84C287.759 769.725 291.01 748.147 291.26 732.505C299.123 739.815 307.515 745.995 316.963 751.136C352.765 770.618 403.23 778.686 443.335 782.677C514.576 789.766 623.489 784.857 688.09 754.153C700.342 748.33 711.008 741.104 721.486 732.529Z"/><path fill="#F13C39" d="M291.289 612.559C296.733 620.179 302.318 626.243 310.002 631.702C336.502 650.526 382.846 660.531 414.482 665.807Q434.744 669.073 455.186 670.893Q475.629 672.712 496.149 673.076C552.145 673.924 660.353 665.128 706.957 631.492C713.375 626.86 717.649 621.684 721.932 615.1C722.351 622.438 721.998 630.001 722.004 637.361Q721.982 656.574 722.18 675.785C722.201 688.741 720.005 699.155 710.53 708.508C700.793 718.119 687.842 724.584 675.354 729.838C623.886 751.491 562.616 757.353 507.241 756.967C449.224 756.562 387.238 751.789 333.428 728.545C321.769 723.509 309.388 717.392 300.435 708.165C296.259 703.862 292.961 698.512 291.547 692.645C289.159 682.734 290.82 671.175 290.941 661.002L291.289 612.559Z"/><path fill="#FEFEFE" d="M621.593 684.529C625.529 684.443 629.072 684.762 632.65 686.572C637.394 688.972 640.797 693.341 642.332 698.394Q642.474 698.86 642.592 699.333Q642.71 699.806 642.803 700.285Q642.896 700.763 642.964 701.246Q643.032 701.728 643.075 702.214Q643.118 702.7 643.135 703.187Q643.153 703.674 643.145 704.161Q643.137 704.649 643.104 705.135Q643.07 705.621 643.012 706.105Q642.953 706.589 642.869 707.069Q642.786 707.549 642.677 708.025Q642.568 708.5 642.435 708.969Q642.302 709.438 642.144 709.899Q641.987 710.36 641.806 710.813Q641.624 711.265 641.42 711.708Q641.215 712.15 640.988 712.581Q640.76 713.012 640.511 713.431C637.424 718.723 632.504 721.432 626.782 722.999C622.612 723.119 618.724 722.679 614.966 720.741Q614.532 720.516 614.111 720.27Q613.689 720.024 613.281 719.757Q612.872 719.489 612.477 719.202Q612.083 718.914 611.703 718.607Q611.324 718.3 610.96 717.974Q610.597 717.648 610.25 717.304Q609.904 716.96 609.575 716.599Q609.246 716.238 608.936 715.861Q608.626 715.484 608.335 715.091Q608.045 714.699 607.774 714.292Q607.504 713.886 607.254 713.466Q607.005 713.046 606.777 712.615Q606.549 712.183 606.343 711.74Q606.137 711.297 605.954 710.845Q605.771 710.392 605.611 709.931Q605.451 709.47 605.314 709.001Q605.055 708.131 604.884 707.24Q604.712 706.349 604.629 705.446Q604.546 704.542 604.552 703.635Q604.559 702.728 604.654 701.826Q604.75 700.923 604.934 700.035Q605.118 699.146 605.389 698.28Q605.66 697.414 606.014 696.579Q606.369 695.744 606.804 694.948C610.102 688.848 615.287 686.441 621.593 684.529Z"/><path fill="#FEFEFE" d="M566.334 695.634C569.601 695.65 572.963 696.225 575.973 697.526Q576.416 697.716 576.848 697.928Q577.28 698.141 577.701 698.375Q578.121 698.609 578.529 698.865Q578.938 699.12 579.332 699.396Q579.727 699.672 580.107 699.968Q580.487 700.264 580.851 700.578Q581.216 700.893 581.563 701.226Q581.911 701.559 582.241 701.91Q582.572 702.26 582.884 702.627Q583.196 702.994 583.488 703.376Q583.781 703.758 584.054 704.155Q584.327 704.552 584.579 704.962Q584.831 705.372 585.062 705.795Q585.293 706.218 585.502 706.651Q585.711 707.085 585.897 707.529Q586.083 707.973 586.247 708.426Q586.416 708.884 586.561 709.35Q586.706 709.817 586.826 710.29Q586.946 710.763 587.041 711.242Q587.136 711.721 587.206 712.204Q587.276 712.687 587.321 713.174Q587.366 713.66 587.385 714.148Q587.403 714.635 587.397 715.124Q587.39 715.612 587.358 716.099Q587.326 716.586 587.268 717.071Q587.211 717.556 587.128 718.037Q587.044 718.518 586.936 718.994Q586.828 719.47 586.695 719.94Q586.562 720.41 586.405 720.872Q586.248 721.334 586.066 721.788Q585.885 722.241 585.68 722.684Q585.475 723.127 585.247 723.559C581.908 729.98 576.657 732.567 570.058 734.506C565.975 734.518 562.396 734.191 558.69 732.251C553.952 729.772 550.577 725.344 549.166 720.212Q549.034 719.744 548.927 719.271Q548.82 718.797 548.737 718.318Q548.654 717.839 548.596 717.357Q548.538 716.875 548.505 716.39Q548.472 715.906 548.463 715.42Q548.455 714.934 548.472 714.449Q548.489 713.963 548.53 713.479Q548.572 712.995 548.639 712.514Q548.705 712.033 548.797 711.556Q548.888 711.078 549.003 710.607Q549.119 710.135 549.259 709.67Q549.399 709.204 549.562 708.747Q549.726 708.289 549.913 707.841Q550.099 707.393 550.309 706.954Q550.519 706.516 550.751 706.089Q550.982 705.662 551.236 705.248C554.716 699.593 560.117 697.106 566.334 695.634Z"/><path fill="#F13C39" d="M721.752 447.232C722.873 459.512 722.016 472.543 722.027 484.895C722.038 496.946 723.607 518.433 721.081 529.343C719.97 534.143 717.418 538.406 714.275 542.137C704.596 553.623 690.504 560.923 676.957 566.851C638.801 583.548 597.451 590.733 556.131 593.995C487.788 599.391 407.836 595.312 343.651 569.812C330.054 564.41 315.516 557.667 304.328 548.118C295.907 540.931 291.875 534.866 291.126 523.704C290.065 507.91 290.995 490.116 291.073 474.15C291.112 466.115 289.957 456.71 291.338 448.82C296.747 458.208 303.577 464.358 312.922 469.867C392.29 516.663 549.778 517.806 637.815 494.658C661.502 488.43 693.014 478.388 710.941 461.416C715.368 457.225 718.694 452.478 721.752 447.232Z"/><path fill="#FEFEFE" d="M620.383 521.553C624.426 521.438 627.844 521.523 631.626 523.235C636.467 525.426 640.007 529.671 641.667 534.679Q641.828 535.154 641.964 535.636Q642.101 536.118 642.213 536.606Q642.326 537.095 642.413 537.588Q642.501 538.082 642.563 538.579Q642.626 539.076 642.663 539.576Q642.701 540.076 642.713 540.577Q642.726 541.078 642.713 541.579Q642.7 542.08 642.662 542.579Q642.624 543.079 642.561 543.576Q642.498 544.074 642.41 544.567Q642.322 545.06 642.21 545.549Q642.097 546.037 641.96 546.519Q641.823 547.001 641.662 547.476Q641.501 547.95 641.316 548.416Q641.131 548.882 640.923 549.338Q640.716 549.794 640.485 550.239C637.393 556.161 632.199 558.683 626.099 560.495C622.328 560.583 619.013 560.382 615.507 558.837Q614.657 558.466 613.849 558.014Q613.04 557.561 612.281 557.03Q611.521 556.498 610.818 555.895Q610.115 555.291 609.475 554.62Q608.835 553.95 608.265 553.219Q607.695 552.488 607.2 551.704Q606.706 550.92 606.291 550.091Q605.877 549.262 605.547 548.396Q605.37 547.935 605.217 547.465Q605.063 546.995 604.933 546.519Q604.802 546.042 604.696 545.56Q604.589 545.078 604.506 544.591Q604.424 544.104 604.365 543.613Q604.306 543.123 604.272 542.63Q604.238 542.137 604.228 541.643Q604.218 541.149 604.232 540.655Q604.246 540.161 604.285 539.669Q604.324 539.176 604.387 538.686Q604.45 538.196 604.537 537.71Q604.624 537.224 604.735 536.742Q604.846 536.261 604.98 535.786Q605.115 535.31 605.273 534.842Q605.43 534.374 605.611 533.914Q605.792 533.454 605.995 533.004C608.892 526.548 614.117 523.876 620.383 521.553Z"/><path fill="#FEFEFE" d="M564.357 530.565C568.408 530.406 571.924 530.396 575.767 531.98C580.671 534.001 584.426 538.197 586.297 543.118C588.15 547.991 588.033 553.395 585.73 558.095C582.694 564.29 577.559 567.452 571.231 569.471C567.506 569.709 564.124 569.643 560.57 568.286Q560.108 568.114 559.656 567.918Q559.204 567.722 558.762 567.503Q558.32 567.284 557.891 567.043Q557.461 566.802 557.044 566.539Q556.627 566.275 556.225 565.991Q555.822 565.707 555.435 565.402Q555.047 565.098 554.676 564.773Q554.305 564.449 553.951 564.106Q553.596 563.763 553.261 563.402Q552.925 563.042 552.608 562.664Q552.291 562.287 551.994 561.893Q551.697 561.5 551.421 561.092Q551.144 560.683 550.89 560.262Q550.635 559.84 550.402 559.405Q550.169 558.971 549.959 558.525Q549.749 558.079 549.562 557.623Q549.382 557.163 549.224 556.694Q549.067 556.226 548.933 555.75Q548.799 555.275 548.689 554.793Q548.579 554.311 548.493 553.825Q548.407 553.338 548.346 552.848Q548.284 552.357 548.247 551.865Q548.209 551.372 548.197 550.878Q548.184 550.384 548.196 549.89Q548.207 549.396 548.244 548.903Q548.28 548.41 548.341 547.92Q548.401 547.43 548.486 546.943Q548.571 546.456 548.681 545.974Q548.79 545.492 548.922 545.016Q549.055 544.54 549.212 544.071Q549.368 543.603 549.547 543.142Q549.727 542.682 549.929 542.231C552.823 535.768 558.043 532.887 564.357 530.565Z"/><path fill="#FEFEFE" d="M500.367 172.235C555.669 171.039 664.276 181.826 707.332 218.632C713.283 223.72 718.942 230.248 719.397 238.45C719.758 244.951 716.567 251.158 712.217 255.8C702.624 266.037 688.551 271.87 675.678 276.778C622.82 296.936 567.136 300.108 511.215 302.299C458.393 302.811 341.989 293.934 301.787 256.723C296.563 251.889 291.671 245.225 291.538 237.839C291.42 231.303 295.168 225.349 299.519 220.753C310.092 209.586 325.357 203.026 339.511 197.727C390.605 178.6 446.172 173.501 500.367 172.235Z"/></svg> 