<?xml version="1.0" encoding="utf-8" ?><!-- created by svgstack.com | Attribution is required. --><svg xmlns="http://www.w3.org/2000/svg" xmlns:xlink="http://www.w3.org/1999/xlink" width="1024" height="1024"><path fill="#2657B3" transform="scale(2 2)" d="M203.065 445.427L203.046 421.671C203.03 416.679 200.522 403.995 209.541 406.641C213.249 410.703 212.008 415.398 212.003 420.568C211.996 428.234 211.698 436.006 211.986 443.659C211.011 449.88 206.608 448.951 203.065 445.427Z"/><path fill="#2657B3" transform="scale(2 2)" d="M254.869 61.5975C272.096 60.4376 280.728 85.1496 260.593 93.9725L260.593 108.766L257.662 108.766L251.49 108.766L251.49 93.9725C234.383 87.2837 235.934 63.8499 254.869 61.5975ZM255.632 70.5921C246.271 71.8627 246.221 85.3512 256.277 85.3369C266.728 83.2394 265.505 70.8594 255.632 70.5921Z"/><path fill="#2657B3" transform="scale(2 2)" d="M399.613 151.619C415.6 150.316 423.617 171.724 409.847 180.662C401.682 185.961 392.09 183.017 387.061 175.058C386.98 174.179 386.994 173.375 387.061 172.497C379.826 172.771 372.494 172.508 365.25 172.497C359.48 162.957 360.55 163.35 372.444 163.35L385.475 163.369C387.571 156.649 392.467 152.38 399.613 151.619ZM399.613 160.527C390.668 163.594 393.293 176.34 402.511 174.287C411.414 172.188 409.076 159.679 399.613 160.527Z"/><path fill="#2657B3" transform="scale(2 2)" d="M109.636 151.619C117.814 149.137 124.917 157.059 127.423 163.886C134.703 163.683 141.942 163.057 149.23 163.369C148.265 166.462 146.851 169.498 145.615 172.497C139.533 172.189 133.431 173.129 127.352 172.694L126.889 172.657L126.626 173.007C122.863 183.616 109.615 187.203 100.809 179.886C89.8479 170.779 95.6656 152.643 109.636 151.619ZM109.636 160.527C100.673 163.045 103.747 176.825 113.298 174.287C122.215 171.216 119.437 159.321 109.636 160.527Z"/><path fill="#2657B3" transform="scale(2 2)" d="M174.269 78.0916C190.198 78.8829 197.896 99.0497 180.903 109.508C180.685 111.869 180.767 114.295 180.903 116.659C184.133 120.913 187.517 125.05 190.701 129.336C188.177 130.718 185.93 132.406 183.622 134.113C180.103 128.946 175.155 124.776 172.147 119.245C172.02 116.358 172.185 113.41 172.147 110.514C151.885 107.271 153.757 79.7965 174.269 78.0916ZM172.147 87.2763C163.26 91.1583 166.26 102.822 175.676 101.928C185.352 98.9523 182.573 86.7785 172.147 87.2763Z"/><path fill="#2657B3" transform="scale(2 2)" d="M337.413 78.0916C352.96 75.979 365.207 102.384 340.844 110.514C339.524 123.811 335.72 123.82 327.093 134.113L326.947 134.197C325.837 134.172 320.999 130.244 319.752 129.336C325.949 122.504 330.784 118.537 331.857 109.508C316.161 101.24 319.997 79.3695 337.413 78.0916ZM337.413 87.2763C327.355 88.6113 329.452 102.264 339.544 101.928C348.803 98.1671 345.866 85.3748 337.413 87.2763Z"/><path fill="#2657B3" transform="scale(2 2)" d="M429.142 222.842C447.889 220.916 453.429 248.572 435.669 254.617C426.917 257.597 417.88 252.407 415.187 243.839C414.182 243.389 394.464 243.855 391.531 243.668C385.722 243.298 383.521 238.61 388.246 235.017C390.92 234.539 414.531 234.829 415.187 235.017C417.178 227.85 421.621 223.98 429.142 222.842ZM429.142 231.659C420.461 234.996 421.856 246.998 432.057 246.374C440.679 242.994 438.848 231.638 429.142 231.659Z"/><path fill="#2657B3" transform="scale(2 2)" d="M80.6272 222.842C89.2377 221.77 95.142 227.31 98.0324 235.017L125.076 235.017L125.076 243.839C122.031 244.006 118.907 243.861 115.854 243.858L98.0324 243.839C96.8143 245.418 96.181 247.768 94.9704 249.509C89.914 256.782 79.3188 257.971 72.3336 252.865C59.494 243.479 65.279 225.119 80.6272 222.842ZM80.6272 231.659C71.0814 235.991 73.4503 248.128 84.0323 246.374C92.9422 242.585 90.3273 231.485 80.6272 231.659Z"/><path fill="#8FC8FC" transform="scale(2 2)" d="M209.541 396.738L304.247 396.738L304.237 430.028C304.241 433.859 304.759 440.161 304.247 443.659C297.108 444.072 289.416 443.666 282.204 443.664L240.006 443.659C239.595 450.009 231.925 449.483 230.981 443.659C229.107 443.556 212.511 443.369 211.986 443.659C211.698 436.006 211.996 428.234 212.003 420.568C212.008 415.398 213.249 410.703 209.541 406.641C209.406 403.36 209.534 400.025 209.541 396.738Z"/><path fill="#2657B3" transform="scale(2 2)" d="M230.981 419.53C234.588 414.888 239.771 416.185 240.027 422.502C240.282 428.777 239.241 437.957 240.006 443.659C239.595 450.009 231.925 449.483 230.981 443.659C231.039 436.718 230.231 426.085 230.981 419.53Z"/><path fill="#2657B3" transform="scale(2 2)" d="M140.25 321.489C129.899 321.177 109.797 325.835 110.726 309.002C110.873 306.344 130.843 266.692 133.006 262.036C141.504 243.742 137.262 250.004 138.569 230.118C140.706 197.582 156.023 166.852 181.131 145.975C231.828 103.82 305.801 112.66 347.426 162.966C384.891 208.245 382.999 275.159 341.895 317.423L341.921 383.988C341.972 396.533 342.128 396.8 328.295 396.753C323.359 396.737 318.421 396.669 313.486 396.738L313.493 427.933C313.491 433.195 313.938 438.935 313.231 444.133C312.394 450.283 305.72 449.163 304.247 443.659C304.759 440.161 304.241 433.859 304.237 430.028L304.247 396.738L209.541 396.738L175.377 396.728C169.58 396.73 161.308 397.45 155.814 396.139C137.44 391.756 140.239 373.911 140.242 359.816L140.25 321.489ZM250.171 128.011C189.45 133.478 145.697 180.27 147.508 241.563C147.873 253.91 147.719 252.164 142.479 263.411C135.481 278.43 126.706 293.964 120.397 309.083C117.083 317.025 145.432 308.805 148.254 313.315C150.395 316.737 149.248 326.204 149.248 330.153L149.23 355.994C155.178 356.003 179.843 355.25 183.622 356.684C186.062 359.292 186.461 364.062 181.998 364.809C178.563 365.384 174.523 364.995 171.016 364.99L149.23 364.983C148.705 376.534 147.487 387.506 162.868 387.625L198.662 387.617L332.607 387.617L332.603 333.028C332.597 313.507 328.944 318.629 340.447 305.401C375.868 264.669 372.447 199.878 334.438 161.812C312.224 139.564 281.713 126.889 250.171 128.011Z"/><path fill="#2657B3" transform="scale(2 2)" d="M244.407 327.287C247.265 327.149 248.693 328.099 250.171 330.591C250.521 334.192 249.991 336.196 246.566 337.871C240.426 338.775 238.259 328.981 244.407 327.287Z"/><path fill="#2657B3" transform="scale(2 2)" d="M261.449 327.287C269.52 326.608 270.203 333.487 265.068 337.871C258.257 339.268 255.982 330.691 261.449 327.287Z"/><path fill="#2657B3" transform="scale(2 2)" d="M263.544 343.783C268.852 343.246 267.795 352.275 267.78 355.458L267.747 367.871C266.702 369.617 265.537 370.501 263.544 370.969C254.889 371.148 259.136 346.385 259.433 345.913C260.359 344.438 261.986 344.181 263.544 343.783Z"/><path fill="#2657B3" transform="scale(2 2)" d="M244.407 343.783C246.279 343.549 247.997 343.939 249.165 345.589C250.321 347.223 252.603 367.625 247.342 370.969C245.462 371.109 242.785 371.156 241.725 369.242C240.732 367.449 238.29 347.079 244.407 343.783Z"/><path fill="#2657B3" transform="scale(2 2)" d="M279.281 327.287C283.299 326.9 284.962 327.681 285.36 331.732C285.955 337.792 287.781 352.51 281.99 355.994C271.992 356.756 276.659 328.97 276.853 328.656C277.431 327.721 278.284 327.53 279.281 327.287Z"/><path fill="#2657B3" transform="scale(2 2)" d="M226.528 327.287C230.039 326.017 232.016 327.628 232.392 331.032C233.09 337.35 234.856 352.041 229.042 355.994C227.457 355.929 224.487 355.124 223.89 353.513C222.931 350.923 220.393 328.829 226.528 327.287Z"/><path fill="#2657B3" transform="scale(2 2)" d="M241.089 153.822C248.957 153.8 256.838 153.692 264.704 153.788C272.723 153.885 270.918 159.246 270.332 165.512L284.613 165.49C297.573 165.472 296.298 165.741 296.363 178.003C299.422 178.048 302.522 177.737 305.57 178.003L306.018 178.451C320.108 192.634 319.814 188.61 319.752 206.629C323.467 206.758 326.28 205.7 328.937 208.942C329.534 214.277 328.953 219.949 328.95 225.325C328.939 243.057 330.69 240.81 311.495 240.689L311.495 248.589C314.99 248.643 324.808 247.885 327.383 249.27C330.381 250.884 329.152 272.752 327.668 274.689C326.263 276.523 321.857 276.511 319.752 276.73C321.837 284.094 321.062 292.41 315.308 298.022C309.262 303.919 303.051 303.006 295.341 302.971C295.255 306.8 297.363 316.904 292.441 318.47C290.625 319.047 266.826 319.659 264.657 318.229C261.947 316.443 262.221 310.826 261.969 307.875C262.127 306.23 262.121 304.615 261.969 302.971C260.11 302.755 258.128 302.919 256.255 302.935L245.975 302.971C245.95 307.283 246.218 311.641 245.975 315.944C242.008 320.607 230.708 318.794 224.588 318.784C210.629 318.761 212.901 317.204 213.014 302.971C203.831 302.935 197.144 303.588 191.116 294.878C187.087 289.056 187.237 283.38 188.486 276.73C183.032 276.746 180.052 276.81 179.747 270.504C178.607 246.901 176.449 247.644 197.373 247.751C196.835 245.146 196.917 243.296 197.373 240.689C192.891 240.115 181.878 242.916 180.088 236.926C179.061 233.489 178.887 212.825 180.903 208.942C182.905 206.44 185.546 206.734 188.486 206.629C188.463 202.983 187.686 194.226 189.671 191.088C195.554 181.787 201.628 177.987 211.986 180.222C212.593 174.83 210.453 167.023 216.438 165.808C220.71 164.94 232.66 165.5 237.737 165.512C237.802 161.573 235.877 155.028 241.089 153.822ZM246.566 162.991L246.566 180.222L261.969 180.222L261.969 162.991L246.566 162.991Z"/><path fill="#8FC8FC" transform="scale(2 2)" d="M270.332 174.287L287.683 174.287C287.686 178.242 286.625 188.936 289.141 191.62C292.72 195.439 296.674 191.536 296.363 186.78C298.175 186.734 299.989 186.766 301.802 186.78C304.403 190.139 307.24 193.114 310.523 195.813L310.523 206.629C306.157 206.598 296.815 204.667 296.759 211.453C296.705 217.991 315.637 215.527 319.752 215.511L319.752 231.659C314.497 231.624 306.791 229.918 302.665 233.974C302.2 238.627 301.014 256.584 306.293 257.56C309.432 258.14 316.182 257.473 319.752 257.486L319.752 267.637C316.526 267.639 291.956 264.394 298.786 274.271C300.634 276.944 306.639 276.237 309.657 276.73C312.247 280.905 312.706 286.573 309.554 290.612C303.647 298.182 291.587 289.59 286.24 297.066C286.16 301.326 286.236 305.6 286.24 309.861C281.271 309.721 276.25 309.856 271.277 309.861C271.188 291.142 273.357 293.782 254.159 293.808C249.474 293.814 244.676 293.543 240.006 293.818C236.265 296.707 236.935 300.327 236.981 304.655L236.981 309.861L221.984 309.861C221.953 304.795 224.016 297.209 219.26 293.818C210.907 293.425 199.315 296.832 196.754 285.855C195.969 282.491 196.9 279.57 198.662 276.73C201.302 276.8 205.943 277.467 207.99 275.589C209.934 273.806 209.775 270.363 207.881 268.602C205.939 266.796 191.916 267.629 188.486 267.637L188.486 257.486C191.503 257.507 201.53 257.81 203.751 255.983C207.016 253.298 206.251 238.595 205.546 235.232C204.205 228.836 193.963 231.075 188.486 231.09L188.486 215.511C191.815 215.504 205.636 216.369 207.538 214.798C209.476 213.198 209.187 209.842 207.55 208.147C205.698 206.23 199.884 206.762 197.373 206.629L197.373 195.813C200.216 193.199 202.968 190.477 205.744 187.792C207.777 187.596 209.94 187.768 211.986 187.792C212.006 187.871 212.025 187.951 212.045 188.03L212.151 188.426C213.119 192.124 216.722 194.455 219.92 191.173C222.139 188.895 221.255 177.856 221.237 174.287C226.657 174.268 232.365 174.828 237.737 174.287C237.764 180.376 235.42 188.548 243.043 189.201C248.244 189.647 267.272 191.269 270.332 186.78C270.857 183.243 270.344 178.005 270.332 174.287Z"/><path fill="#2657B3" transform="scale(2 2)" d="M269.103 217.051C273.007 217.056 283.08 216.008 285.773 218.516C290.024 222.475 284.731 226.243 279.281 226.268L279.281 258.959C287.068 257.867 289.893 264.093 284.182 267.637C282.873 267.7 281.558 267.654 280.249 267.637C276.594 267.597 267.209 269.09 264.528 266.377C260.67 262.474 264.656 258.363 270.332 258.959L270.332 226.268C258.97 226.462 258.895 217.472 269.103 217.051Z"/><path fill="#2657B3" transform="scale(2 2)" d="M234.146 217.051C244.24 217.19 253.597 220.27 255.856 231.667C256.697 235.915 256.885 259.904 256.277 265.771C254.602 268.007 250.899 269.451 248.704 267.056C246.45 264.598 247.311 256.045 247.342 252.711L241.089 252.711L228.053 252.711C228.004 256.173 228.897 262.869 227.629 265.86C226.167 269.307 220.541 269.297 219.511 265.631C218.852 263.288 219.11 235.341 219.583 232.199C220.761 224.372 226.479 218.831 234.146 217.051Z"/><path fill="#8FC8FC" transform="scale(2 2)" d="M236.981 226.268C248.061 225.677 247.391 235.778 247.342 243.839L240.006 243.839L228.053 243.839C228.089 236.172 226.828 227.004 236.981 226.268Z"/></svg> 